<?xml version="1.0" encoding="UTF-8" standalone="no"?>
<svg
   xmlns:osb="http://www.openswatchbook.org/uri/2009/osb"
   xmlns:dc="http://purl.org/dc/elements/1.1/"
   xmlns:cc="http://creativecommons.org/ns#"
   xmlns:rdf="http://www.w3.org/1999/02/22-rdf-syntax-ns#"
   xmlns:svg="http://www.w3.org/2000/svg"
   xmlns="http://www.w3.org/2000/svg"
   xmlns:xlink="http://www.w3.org/1999/xlink"
   xmlns:sodipodi="http://sodipodi.sourceforge.net/DTD/sodipodi-0.dtd"
   xmlns:inkscape="http://www.inkscape.org/namespaces/inkscape"
   version="1.1"
   viewBox="0.0 0.0 960.0 720.0"
   fill="none"
   stroke="none"
   stroke-linecap="square"
   stroke-miterlimit="10"
   id="svg2"
   inkscape:version="0.48.4 r9939"
   width="100%"
   height="100%"
   sodipodi:docname="Fish.svg">
  <metadata
     id="metadata47">
    <rdf:RDF>
      <cc:Work
         rdf:about="">
        <dc:format>image/svg+xml</dc:format>
        <dc:type
           rdf:resource="http://purl.org/dc/dcmitype/StillImage" />
      </cc:Work>
    </rdf:RDF>
  </metadata>
  <defs
     id="defs45">
    <linearGradient
       inkscape:collect="always"
       id="linearGradient5379">
      <stop
         style="stop-color:#666666;stop-opacity:1;"
         offset="0"
         id="stop5381" />
      <stop
         style="stop-color:#666666;stop-opacity:0;"
         offset="1"
         id="stop5383" />
    </linearGradient>
    <linearGradient
       id="linearGradient5363">
      <stop
         id="stop5365"
         offset="0"
         style="stop-color:#242929;stop-opacity:1;" />
      <stop
         style="stop-color:#b3b3b3;stop-opacity:1"
         offset="0.35495001"
         id="stop5367" />
      <stop
         id="stop5369"
         offset="1"
         style="stop-color:#999999;stop-opacity:1;" />
    </linearGradient>
    <linearGradient
       id="linearGradient5286">
      <stop
         style="stop-color:#b3b3b3;stop-opacity:1;"
         offset="0"
         id="stop5288" />
      <stop
         style="stop-color:#b3b3b3;stop-opacity:0;"
         offset="1"
         id="stop5290" />
    </linearGradient>
    <linearGradient
       id="linearGradient5277">
      <stop
         style="stop-color:#000000;stop-opacity:1;"
         offset="0"
         id="stop5279" />
      <stop
         style="stop-color:#000000;stop-opacity:0;"
         offset="1"
         id="stop5281" />
    </linearGradient>
    <linearGradient
       id="linearGradient5271"
       osb:paint="solid">
      <stop
         style="stop-color:#666666;stop-opacity:1;"
         offset="0"
         id="stop5273" />
    </linearGradient>
    <filter
       id="filter5314"
       inkscape:label="Apparition"
       x="0"
       y="0"
       width="1"
       height="1"
       inkscape:menu="Blurs"
       inkscape:menu-tooltip="Edges are partly feathered out"
       color-interpolation-filters="sRGB">
      <feMorphology
         id="feMorphology5316"
         radius="4"
         in="SourceGraphic"
         result="result0" />
      <feGaussianBlur
         id="feGaussianBlur5318"
         in="result0"
         stdDeviation="8"
         result="result91" />
      <feComposite
         id="feComposite5320"
         in2="result91"
         operator="in"
         in="SourceGraphic" />
    </filter>
    <linearGradient
       inkscape:collect="always"
       xlink:href="#linearGradient5294-3"
       id="linearGradient5300-2"
       x1="392.22177"
       y1="189.52156"
       x2="391.03497"
       y2="308.19684"
       gradientUnits="userSpaceOnUse" />
    <linearGradient
       id="linearGradient5294-3">
      <stop
         style="stop-color:#999999;stop-opacity:1;"
         offset="0"
         id="stop5296-1" />
      <stop
         id="stop5361"
         offset="0.5"
         style="stop-color:#999999;stop-opacity:0.49803922;" />
      <stop
         style="stop-color:#999999;stop-opacity:0;"
         offset="1"
         id="stop5298-6" />
    </linearGradient>
    <linearGradient
       inkscape:collect="always"
       xlink:href="#linearGradient5379"
       id="linearGradient5385"
       x1="406.57736"
       y1="141.39525"
       x2="405.68991"
       y2="365.6915"
       gradientUnits="userSpaceOnUse"
       gradientTransform="translate(-110.368,-98.500469)" />
    <linearGradient
       inkscape:collect="always"
       xlink:href="#linearGradient5379-9"
       id="linearGradient5385-4"
       x1="406.57736"
       y1="141.39525"
       x2="405.68991"
       y2="365.6915"
       gradientUnits="userSpaceOnUse"
       gradientTransform="translate(-103.21503,81.505086)" />
    <linearGradient
       inkscape:collect="always"
       id="linearGradient5379-9">
      <stop
         style="stop-color:#666666;stop-opacity:1;"
         offset="0"
         id="stop5381-8" />
      <stop
         style="stop-color:#666666;stop-opacity:0;"
         offset="1"
         id="stop5383-2" />
    </linearGradient>
  </defs>
  <sodipodi:namedview
     pagecolor="#ffffff"
     bordercolor="#666666"
     borderopacity="1"
     objecttolerance="10"
     gridtolerance="10"
     guidetolerance="10"
     inkscape:pageopacity="0"
     inkscape:pageshadow="2"
     inkscape:window-width="2560"
     inkscape:window-height="1378"
     id="namedview43"
     showgrid="false"
     inkscape:zoom="2.3833333"
     inkscape:cx="284.77724"
     inkscape:cy="644.66074"
     inkscape:window-x="1672"
     inkscape:window-y="-8"
     inkscape:window-maximized="1"
     inkscape:current-layer="g7" />
  <clipPath
     id="p.0">
    <path
       d="m0 0l960.0 0l0 720.0l-960.0 0l0 -720.0z"
       clip-rule="nonzero"
       id="path5" />
  </clipPath>
  <g
     clip-path="url(#p.0)"
     id="g7">
    <path
       fill="#000000"
       fill-opacity="0.0"
       d="m0 0l960.0 0l0 720.0l-960.0 0z"
       fill-rule="nonzero"
       id="path9" />
    <path
       style="fill:#b7b7b7;fill-rule:nonzero"
       d="m 305.44566,57.418171 c -5.26604,-4.83233 -9.95011,-10.38101 -15.77756,-14.51934 -7.48094,-5.31256 -15.36065,-10.24982 -23.7665,-13.90163 -7.37777,-3.20518 -23.06489,-7.0961 -23.06489,-7.0961 0,0 5.9449,11.26696 7.92232,17.27624 1.88729,5.73541 2.7447,11.75985 4.11705,17.63977 16.85653,0.20035 33.71305,0.40071 50.56958,0.60106 z"
       id="path37"
       inkscape:connector-curvature="0"
       sodipodi:nodetypes="csscscc" />
    <path
       style="fill:url(#linearGradient5385);fill-opacity:1;fill-rule:nonzero"
       d="m 28.694504,43.562031 c 0,0 4.872935,20.391307 6.625,30.71875 1.624041,9.572813 4.142028,19.212145 3.59375,28.906249 -0.722458,12.77378 -4.606105,25.29647 -9,37.3125 -2.004618,5.48205 -7.84375,15.65625 -7.84375,15.65625 0,0 18.863241,-16.79814 29.5,-23.5 6.984614,-4.40077 14.358141,-8.4939 22.28125,-10.8125 9.885689,-2.89293 20.387243,-3.65104 30.687496,-3.625 4.51305,0.0114 9.11655,0.35353 13.4375,1.65625 6.47731,2.36057 13.33531,3.94432 19.09375,5.24995 12.12904,2.75145 24.39469,4.95117 36.71875,6.625 23.95407,3.2534 48.07572,5.40181 72.21875,6.625 20.24583,1.02575 40.55055,1.22555 60.8125,0.59375 19.50999,-0.60835 38.98832,-2.23038 58.40625,-4.21875 22.75703,-2.33029 45.54998,-4.79979 68.03125,-9.03125 19.88759,-3.74327 58.96875,-14.4375 58.96875,-14.4375 l 2.53125,-6.75 c 0,0 -9.884,0.97179 -14.84375,1.0625 -2.9005,0.053 -5.89086,0.42973 -8.69765,-0.30351 -5.04259,-1.31731 -8.91358,-2.23489 -13.8961,-7.166988 5.50699,0.837126 7.59443,0.47031 11.36404,0.09595 3.88111,-0.385432 7.55287,-2.316682 11.45223,-2.39805 5.69963,-0.118933 16.87123,2.803847 16.87123,2.803847 l 0.65625,-1.78125 c 0,0 -2.73799,-5.222673 -4.8125,-7.25 -6.44867,-6.302016 -14.60741,-10.839204 -22.875,-14.4375 -13.70105,-5.963099 -28.68209,-8.55424 -43.34375,-11.4375 -19.65805,-3.865814 -39.61747,-6.285508 -59.59375,-7.8125 -18.22219,-1.392909 -36.54306,-0.754106 -54.8125,-1.21875 -14.91796,-0.379406 -29.82759,-1.176805 -44.75,-1.28125 -2.13559,-0.01495 -4.27229,0.0089 -6.40625,0.0937 -18.48258,0.734448 -37.01487,1.346398 -55.375,3.59375 -26.91888,3.294976 -53.94783,7.153906 -80.0625,14.46875 -8.89639,2.491921 -10.90693,4.1077 -16.53125,5.59375 -8.41017,2.222123 -16.297497,4.517021 -25.624996,4.9375 -3.459243,0.03454 -7.021136,-0.492342 -10.21875,-1.8125 -5.194969,-2.144781 -9.421584,-6.15625 -13.84375,-9.625 -10.742673,-8.42656 -30.71875,-27.09365 -30.71875,-27.09365 z"
       id="path11"
       inkscape:connector-curvature="0"
       sodipodi:nodetypes="caaacaaaccaaaaaccaacaaccaaaaaaaasacaac" />
    <g
       id="g9643">
      <path
         style="fill:#f3f3f3;fill-rule:nonzero"
         inkscape:connector-curvature="0"
         id="path13"
         d="m 394.56004,79.624591 0,0 c 0,-14.41995 12.15573,-26.10964 27.15055,-26.10964 l 0,0 c 7.20079,0 14.10664,2.75083 19.19835,7.64734 5.09172,4.89651 7.95226,11.53759 7.95226,18.4623 l 0,0 c 0,14.41996 -12.15573,26.109629 -27.15061,26.109629 l 0,0 c -14.99482,0 -27.15055,-11.689669 -27.15055,-26.109629 z" />
      <path
         style="stroke:#cccccc;stroke-width:1.70908058;stroke-linecap:butt;stroke-linejoin:round"
         inkscape:connector-curvature="0"
         id="path15"
         d="m 394.56004,79.624591 0,0 c 0,-14.41995 12.15573,-26.10964 27.15055,-26.10964 l 0,0 c 7.20079,0 14.10664,2.75083 19.19835,7.64734 5.09172,4.89651 7.95226,11.53759 7.95226,18.4623 l 0,0 c 0,14.41996 -12.15573,26.109629 -27.15061,26.109629 l 0,0 c -14.99482,0 -27.15055,-11.689669 -27.15055,-26.109629 z" />
    </g>
    <path
       d="m 426.63945,75.767642 0,0 c 0,-4.14308 3.89449,-7.50171 8.6986,-7.50171 l 0,0 c 4.80404,0 8.69853,3.35863 8.69853,7.50171 l 0,0 c 0,4.14308 -3.89449,7.50173 -8.69853,7.50173 l 0,0 c -4.80411,0 -8.6986,-3.35865 -8.6986,-7.50173 z"
       id="path17"
       inkscape:connector-curvature="0"
       style="fill:#000000;fill-rule:nonzero" />
    <path
       d="m 377.68415,66.449661 c -1.50479,4.113739 -9.22964,15.251083 -9.02887,24.682419 0.20081,9.43132 8.52802,26.58792 10.23362,31.9055"
       id="path29"
       inkscape:connector-curvature="0"
       style="fill:#000000;fill-opacity:0;fill-rule:nonzero" />
    <path
       d="m 377.68415,66.449661 c -1.50479,4.113739 -9.22964,15.251083 -9.02887,24.682419 0.20081,9.43132 8.52802,26.58792 10.23362,31.9055"
       id="path31"
       style="stroke:#666666;stroke-width:2;stroke-linecap:butt;stroke-linejoin:round;stroke-opacity:1"
       inkscape:connector-curvature="0" />
    <path
       d="m 387.4902,65.847661 c -1.50482,4.113724 -9.22964,15.251083 -9.02887,24.682404 0.20078,9.43132 8.52799,26.587935 10.23359,31.905515"
       id="path33"
       inkscape:connector-curvature="0"
       style="fill:#000000;fill-opacity:0;fill-rule:nonzero" />
    <path
       d="m 387.4902,65.847661 c -1.50482,4.113724 -9.22964,15.251083 -9.02887,24.682404 0.20078,9.43132 8.52799,26.587935 10.23359,31.905515"
       id="path35"
       style="stroke:#666666;stroke-width:2;stroke-linecap:butt;stroke-linejoin:round;stroke-opacity:1"
       inkscape:connector-curvature="0" />
    <path
       d="m 254.87608,55.010901 c 3.91297,-0.200775 14.54813,-1.304901 23.4777,-1.204712 8.92959,0.100174 25.08313,1.504806 30.09976,1.805771"
       id="path39"
       inkscape:connector-curvature="0"
       style="fill:#000000;fill-opacity:0;fill-rule:nonzero" />
    <path
       inkscape:connector-curvature="0"
       style="fill:#ececec;fill-rule:nonzero"
       d="m 320.79193,127.03377 c -8.18654,0.008 -16.89459,0.14725 -25.90625,0.4375 -38.00028,1.22393 -70.16608,4.70563 -81.875,8.5 11.15879,0.98164 22.3436,1.77664 33.53125,2.34375 20.24271,1.02612 40.55358,1.22331 60.8125,0.59375 19.50574,-0.60616 38.99253,-2.23161 58.40625,-4.21875 5.47053,-0.55995 10.9362,-1.15129 16.40625,-1.75 -2.18349,-3.6466 -27.36874,-5.93851 -61.375,-5.90625 z"
       id="path11-1" />
    <path
       d="m 231.3658,136.03466 c 0,0 -19.32449,8.88335 -28.18729,14.68897 -2.28314,1.49558 -6.36975,5.14508 -6.36975,5.14508 0,0 -1.82989,-5.35348 -3.40262,-7.66427 -1.35947,-1.99745 -2.95669,-4.02115 -5.08413,-5.16658 -8.01332,-4.31441 -18.15421,-2.39721 -26.78882,-5.27313 -2.3854,-0.7945 -4.82548,-1.71045 -6.79617,-3.27177 -2.13933,-1.69493 -5.14511,-6.36974 -5.14511,-6.36974 0,0 33.08189,-1.42746 49.453,0.50872 10.97611,1.29811 32.32089,7.40272 32.32089,7.40272 z"
       id="path25"
       inkscape:connector-curvature="0"
       style="fill:#cccccc;fill-rule:nonzero"
       sodipodi:nodetypes="cscsssscsc" />
    <path
       d="m 345.0021,109.19245 c 0,0 -13.17589,2.87584 -19.86615,3.61154 -10.1801,1.11946 -30.70078,1.20473 -30.70078,1.20473 0,0 9.56504,4.25258 13.24408,7.82414 3.23551,3.14098 7.22312,11.43833 7.22312,11.43833 0,0 13.80694,-4.50066 19.26507,-9.02887 4.75735,-3.94683 10.83466,-15.04987 10.83466,-15.04987 z"
       id="path23"
       inkscape:connector-curvature="0"
       style="fill:#808080;fill-rule:nonzero"
       sodipodi:nodetypes="cscscsc" />
  </g>
</svg>
